<?xml version="1.0" encoding="UTF-8" standalone="no"?>
<!-- Created with Inkscape (http://www.inkscape.org/) -->

<svg
   version="1.1"
   id="svg1"
   width="100"
   height="116.3555"
   viewBox="0 0 100 116.3555"
   xmlns="http://www.w3.org/2000/svg"
   xmlns:svg="http://www.w3.org/2000/svg">
  <defs
     id="defs1" />
  <g
     id="g1"
     transform="translate(-442.748,-358.622)">
    <path
       style="fill:#1a1a1a;fill-opacity:1;stroke:none;stroke-width:0.133363"
       d="m 491.87748,474.91741 c -1.75463,-0.2679 -8.20384,-3.68058 -12.9362,-6.84535 -4.8812,-3.26431 -8.56358,-6.2967 -12.81007,-10.54892 -5.02765,-5.03444 -9.16789,-10.378 -12.45961,-16.08089 -1.25377,-2.17215 -3.52222,-6.80681 -4.40607,-9.002 -1.72926,-4.29493 -3.74328,-11.29337 -4.58632,-15.93687 -1.55764,-8.57943 -2.00211,-15.57892 -1.92235,-30.27339 0.0429,-7.9099 0.044,-7.93685 0.34011,-8.49065 0.57914,-1.08316 1.16842,-1.3031 4.03725,-1.50684 15.09892,-1.07232 28.91552,-6.13118 41.0091,-15.01524 2.88699,-2.12081 3.39756,-2.44321 4.01608,-2.53596 1.2192,-0.18283 1.64461,-0.012 3.75496,1.5078 13.86053,9.98193 27.09534,14.97807 42.50679,16.04631 2.41776,0.16759 3.22886,0.43115 3.7618,1.22238 0.59094,0.87733 0.6095,1.29431 0.53289,11.96441 -0.10822,15.0712 -0.50025,20.19861 -2.17254,28.41481 -2.74913,13.50691 -8.01776,24.59979 -16.53813,34.82036 -2.11789,2.5405 -7.00308,7.4568 -9.32262,9.382 -6.36887,5.28608 -13.22281,9.60218 -19.33763,12.17738 -1.71173,0.72088 -2.41038,0.86206 -3.46744,0.70066 z m 8.14619,-28.72575 c 2.87079,-0.33163 5.03479,-0.73183 7.99073,-1.47779 6.76144,-1.70633 10.35674,-3.75853 10.88291,-6.212 0.23133,-1.07866 0.0843,-3.93627 -0.28104,-5.46148 -0.77169,-3.22176 -2.30661,-5.8991 -4.92053,-8.58284 -2.96991,-3.04921 -6.18465,-4.98554 -10.20821,-6.1487 l -1.1928,-0.34482 -1.20773,0.52966 c -1.5105,0.66245 -3.2705,1.24056 -4.74186,1.55757 -1.60367,0.34553 -5.86517,0.3543 -7.43602,0.0153 -1.49554,-0.32273 -3.33261,-0.93439 -4.7113,-1.56864 l -1.14487,-0.52669 -1.1223,0.3359 c -4.98154,1.49092 -9.00521,4.2957 -12.06161,8.40776 -1.62817,2.19052 -2.65894,4.48688 -3.196,7.12 -0.33434,1.63925 -0.24293,4.91223 0.15855,5.67688 1.50406,2.86454 10.20899,5.86479 19.51133,6.72477 0.84352,0.078 1.77373,0.16502 2.06713,0.19342 1.33281,0.12899 9.96784,-0.0482 11.61362,-0.23831 z m -3.5034,-30.66823 c 2.71507,-0.71074 4.95096,-1.95769 7.02175,-3.91601 5.10789,-4.83046 6.33479,-12.47011 2.99611,-18.65597 -2.3072,-4.27475 -6.17284,-7.09551 -10.96519,-8.00132 -1.54282,-0.29161 -4.27117,-0.29178 -5.79924,-4e-4 -5.67471,1.08221 -10.2804,5.1812 -12.00286,10.68233 -0.59734,1.90776 -0.69032,2.5659 -0.67828,4.80106 0.0104,1.93012 0.0505,2.2831 0.42006,3.69776 1.58487,6.06676 6.28576,10.48498 12.37737,11.63307 1.67645,0.31596 4.95934,0.19686 6.63028,-0.24055 z"
       id="path1" />
  </g>
</svg>
